# xmcd
#
# Track frame offsets: 
#        150
#        14032
#        27742
#        39972
#        50860
#        62810
#        76290
#        86892
#        96977
#        106227
#        117285
#        128412
#        140582
#        151762
#        171265
#        185292
#        195082
#        204610
#        216697
#        231105
#        243250
#
# Disc length: 3407 seconds
#
# Revision: 0
# Processed by: cddbd v1.5.2PL0 Copyright (c) Steve Scherf et al.
# Submitted via: ExactAudioCopy v0.99pb4
#
DISCID=290d4d15
DTITLE=Koko Taylor - Love You Like A Woman
DYEAR=1990
DGENRE=Blues
TTITLE0=I Got What It Takes
TTITLE1=What Kind Of Man Is This
TTITLE2=Don't Mess With The Messer
TTITLE3=Whatever I Am,You Made Me
TTITLE4=I'm A Little Mixed Up
TTITLE5=Wang Dang Doodle
TTITLE6=Blues Heaven
TTITLE7=( I Got ) All You Need
TTITLE8=Tell Me The Truth
TTITLE9=Good Advice
TTITLE10=Egg Or The Hen
TTITLE11=Just Love Me
TTITLE12=Fire
TTITLE13=Insane Asylum
TTITLE14=Separate Or Integrate
TTITLE15=I Don't Care Who Knows
TTITLE16=Love You Like A Woman
TTITLE17=Yes It's Good For You
TTITLE18=Twenty-Nine Ways
TTITLE19=Nitty Gritty
TTITLE20=I Love A Lover Like You
EXTD=
EXTT0=
EXTT1=
EXTT2=
EXTT3=
EXTT4=
EXTT5=
EXTT6=
EXTT7=
EXTT8=
EXTT9=
EXTT10=
EXTT11=
EXTT12=
EXTT13=
EXTT14=
EXTT15=
EXTT16=
EXTT17=
EXTT18=
EXTT19=
EXTT20=
PLAYORDER=
